<?xml version="1.0" encoding="UTF-8"?>
<svg width="89px" height="27px" viewBox="0 0 89 27" version="1.1" xmlns="http://www.w3.org/2000/svg" xmlns:xlink="http://www.w3.org/1999/xlink">
    <!-- Generator: Sketch 52.6 (67491) - http://www.bohemiancoding.com/sketch -->
    <title>logo</title>
    <desc>Created with Sketch.</desc>
    <g id="Index" stroke="none" stroke-width="1" fill="none" fill-rule="evenodd">
        <g id="qyre_index_1440px" transform="translate(-40.000000, -40.000000)" fill="#FFFFFF">
            <g id="header">
                <g id="symbols/logotype-white" transform="translate(40.000000, 40.000000)">
                    <polygon id="Fill-1" points="9.12825471 0.000160169492 -6.9895288e-05 8.96484661 -6.9895288e-05 26.8942195 9.12825471 26.8942195 18.2563463 17.9297619 9.12825471 17.9297619 9.12825471 8.96484661 18.2563463 8.96484661 18.2563463 17.9297619 27.3846709 8.96484661 27.3846709 0.000160169492"></polygon>
                    <path d="M79.15215,14.5300958 C79.5622024,12.6414686 80.8189196,11.5838924 82.5879694,11.5838924 C84.6391631,11.5838924 85.7929013,12.8176551 85.9725322,14.5300958 L79.15215,14.5300958 Z M88.9470427,15.4867653 C88.9470427,12.3895449 86.7416134,9.41817203 82.5879694,9.41817203 C78.4855819,9.41817203 76.2801526,12.5405619 76.2801526,15.9654432 C76.2801526,19.3903246 78.6134903,22.5127144 82.7163437,22.5127144 C85.7418777,22.5127144 87.9468411,21.1027653 88.6392704,18.6597229 L85.9981605,18.0053161 C85.6649929,19.3903246 84.4597652,20.1708076 82.7673673,20.1708076 C80.7161736,20.1708076 79.2802914,18.8109686 79.0237757,16.6203076 L88.8955531,16.6203076 C88.9209484,16.3937822 88.9470427,15.8647653 88.9470427,15.4867653 Z" id="Fill-10"></path>
                    <path d="M70.7931628,12.037172 L70.7931628,9.61952797 L67.9985162,9.61952797 L67.9985162,22.3113585 L70.7931628,22.3113585 L70.7931628,17.5769771 C70.7931628,13.6487059 72.4601654,11.9870619 74.3575895,11.9870619 C74.9472728,11.9870619 75.5625843,12.0872822 76.0241262,12.2888669 L76.1778958,9.64469746 C75.7934717,9.49368051 75.2294168,9.41817203 74.7420136,9.41817203 C73.1777571,9.41817203 71.4858251,10.5260873 70.7931628,12.037172" id="Fill-8"></path>
                    <polygon id="Fill-5" points="61.0245508 18.6598144 57.5374749 9.61961949 54.6654775 9.61961949 59.6142969 21.8078314 57.639755 26.8943568 60.3321215 26.8943568 67.1271084 9.61961949 64.3578571 9.61961949"></polygon>
                    <path d="M39.5384597,13.4976432 C39.5384597,9.77049915 42.025567,7.05105 45.4870147,7.05105 C48.9486953,7.05105 51.4355696,9.77049915 51.4355696,13.4976432 C51.4355696,17.2245585 48.9486953,19.9190669 45.4870147,19.9190669 C42.025567,19.9190669 39.5384597,17.2245585 39.5384597,13.4976432 M54.4615696,13.4976432 C54.4615696,8.28481271 50.6664885,4.48238898 45.4870147,4.48238898 C40.3075408,4.48238898 36.5126927,8.28481271 36.5126927,13.4976432 C36.5126927,18.7102449 40.3075408,22.5124398 45.4870147,22.5124398 C45.6251743,22.5124398 45.7619361,22.5087788 45.8982319,22.5030585 L45.8982319,23.8329229 L55.1961691,23.8329229 L55.1961691,21.1921856 L50.3507948,21.1921856 C52.8730827,19.6479229 54.4615696,16.8682958 54.4615696,13.4976432" id="Fill-3"></path>
                    <polygon id="Fill-2" points="18.2564162 26.8942881 27.3847408 26.8942881 27.3847408 17.9296017 18.2564162 17.9296017"></polygon>
                </g>
            </g>
        </g>
    </g>
</svg>